M48
;Layer_Color=9474304
;FILE_FORMAT=2:5
INCH,LZ
;TYPE=PLATED
T1F00S00C0.01181
T3F00S00C0.03150
T4F00S00C0.03543
T5F00S00C0.03937
T6F00S00C0.05100
T7F00S00C0.05512
T8F00S00C0.05906
T9F00S00C0.10827
;TYPE=NON_PLATED
T10F00S00C0.02559
%
T01
X032Y0005
X03205Y00115
X0323Y0017
X03165Y00185
X0322Y0026
X0323Y0034
X032Y00395
X03345Y00375
X03355Y00435
X03395
X0344Y0043
X0347Y004
X03495Y00375
X03525Y00345
X0355Y0032
X03565Y00285
Y0025
X03615
Y00285
X0361Y0033
X0358Y0036
X0355Y0039
X03525Y00415
X035Y0044
X03475Y0047
X03435Y00485
X03395
X03355
X0342Y00375
X034Y0032
X03325
X0331715Y002475
X03275Y00215
X0328Y00125
X03325Y0008
X0333Y0017
X03395
X03455
X0351
X0352894Y0012496
X0356394Y0008996
X0361394
X0358894Y0004496
X0364894Y0012996
Y0021496
X0353394
X03395Y0025
X034Y0011
X03395Y0005
X0354Y00485
X03615
X036Y00435
X0365875
X0363Y00395
X0369167
X0375333
X0374333Y00345
X0381167
X03815Y00395
X03835Y00435
X0377625
X037175
X0375Y00485
X0381
X03685
X03675Y00345
X0367Y0017
X03735
X0379
Y0022
Y0028
X03865
Y0022
Y0017
X0387Y00115
X03875Y0006
X0379
Y00115
X0392932Y0014473
X0393Y0021
X0395Y0027
X03995Y0033
X0404939Y0035277
X0410385Y0035975
X0413875Y0032904
X0417226Y0035975
X0423091Y0034858
X0420577Y0029972
X0424627Y0025224
X04215Y0046
X0414713Y0048542
X04075Y0045
X04Y00445
X0400751Y0050636
X0424Y00545
X0388Y00345
X0395724Y0010284
X03995Y00055
X0395864Y0057757
X0389Y0057
X0385Y0062
X039Y0067
X0396981Y0066553
X0394747Y0072976
X0404Y00725
X0414Y0072
X040857Y0066274
X0407313Y0057478
X0414Y0057
X0418343Y0064459
X04245Y007
X0401894Y0062496
X0384833Y0072697
X03785Y00675
X0373384Y0071999
X0372686Y0061806
X0366961Y0057897
X03795Y0057
X0379251Y0095044
X037043Y0095708
X0372Y0102
X0367518Y0104746
X0379361Y0129903
X0376101Y0144594
X036909Y014623
X0372Y01535
X0381Y0151
X0389Y01465
X03975Y014
X0417Y0125
X040419Y0096048
X0404711Y0089421
X03675Y017
X0382Y02025
X0387Y0198
X0364Y0161
X0352Y01205
X03545Y01155
X0354563Y0108562
X03615Y0107
X0357073Y0101332
X03495Y0102
X0351349Y0096009
X0342512
X03365Y00965
X0335Y01025
X03395Y01045
X03385Y011
X0338Y01165
X03455Y0117
X0346127Y0109265
X03375Y01255
X0315747Y0128751
X03025Y01365
X0303Y01425
X02875Y0137
X0276585Y0135217
X0261813Y0137708
X0253983Y0139844
X0248465Y0138242
X0253449Y0151946
X0250779Y0158353
X0259856Y0156574
X0258Y0164
X0265373Y016921
X0272Y0168
X0272492Y018416
X02675Y0191
X0254
X0252Y01815
X0251Y0173
X02635Y01805
X027997Y0178166
X02925Y0177
X0289043Y0168498
X0297Y0167
X0318096Y0170337
X0319722Y0179776
X0308871Y0201559
X0314Y02085
X0331073Y0203924
X02905Y02045
X0292Y0195
X0288332Y0185583
X0279Y0194
X02705Y02015
X02735Y021
X0224495Y0207501
X0227495Y0202001
X0220995Y0200501
X0232Y01275
X02335Y0115
X0276888Y0116122
X0285Y0118
X0292218Y0113963
X0282502Y0108349
X0275Y01075
X02725Y0095
X02785Y0096
X02895
X02965Y01005
X0301287Y0105111
X0309Y0105
X031Y01135
X0301287Y0121304
X0305Y0097
X0315Y0098
X03115Y0091
X0298Y00925
X0328285Y0071161
X033401
X0342Y0069
X0347972Y0071301
X0353Y0068
X0358305Y0062783
X0353Y0057
X0341
X0344342Y0062225
X0335Y0062
X03325Y00565
X03275Y0064
X03645Y0068
X0360818Y0071999
X036089Y0095306
X0365409Y0099524
X0261102Y0147319
X0205995Y0207501
X0199493Y0206936
X0166Y0168
X0160168Y0166625
X0154019Y0171532
X0149996Y0176095
X01375Y0168181
X01325Y01675
X0127106Y0166894
X01175Y0165787
X0103Y01625
X00975Y0165
X00885Y01665
Y0158
X0082508Y0163225
X0091Y0174
X0066759Y0167861
X0062Y01435
Y0129
X0056Y01195
X00555Y0115
X008461Y0124799
X01065Y01255
X00975Y01145
X01205Y01185
X0115Y014
X0124Y0145
X0140015Y0148576
X0146Y0158
X0101Y01445
X0106Y02035
X0051995Y0203001
X0051495Y0210001
X00395Y0176
X0045Y0158
X0045122Y0122465
X00455Y0118
X001Y01645
X0046Y0277
X00525Y02835
X0050995Y0295001
X0044495Y0295501
X00385Y02925
X0025176Y0312154
X0059205Y0294994
X0068495Y0295001
X0065495Y0290001
X0078995Y0295501
X00874Y0294981
X0088495Y0302001
X0093495Y0292501
X008Y02825
X0085197Y026112
X0106Y0259
X01155Y02765
X011626Y0283522
X0132495Y0286501
X0132995Y0279001
X0132212Y0270458
X0129203Y0267019
X0134995Y0292001
X0137495Y0298001
X0132495
Y0304001
X0137495
X0125868Y0310007
X0118995Y0309501
X0120995Y0302001
X0113495Y0300501
X0147687Y0296036
X01495Y0287
X01555Y0278
X0176Y02765
X01745Y0287
X0173948Y0297176
X0159995Y0297501
X0191495Y0300001
X0199995Y0301501
X0199495Y0292501
X0192293Y0287316
X0209Y0284
X0204Y02575
X0198Y0257
X0197Y02145
X0151109Y0216043
X00945Y02165
X0057855Y0273048
X0185968Y0346483
X0234952Y0340313
X0242905Y0340957
X0243335Y0325912
X0241185Y0319894
X0233877Y0326772
X0230653Y031581
X0221196Y029754
X0224679Y0277978
X0224995Y0262501
X023Y02655
X0216995Y0260001
X02105Y0261
X0219495Y0252001
X022Y0244
X0228495Y0244001
X022851Y0235953
X0222945Y0235158
X02655Y02315
X0274Y02325
X0269Y02415
X0274Y0247
X02695Y02565
X0260212Y0260332
X0265Y0272
X0276586Y0267629
X0277475Y027724
X0287086Y0280444
X0288866Y0268875
X02855Y0259
X0296518Y0259443
X02935Y025
X029723Y0241467
X0295Y0231
X02935Y0223
X0297Y02155
X0319069Y0220869
X0318Y0238
X0332Y0242
X0339034Y0236776
X0338344Y0248992
X0338Y026
X03615Y0258
X0365Y0277
X0353Y02975
X0333594Y0298046
X03205Y0303
X03165Y0312
X0303282Y0311233
X0303994Y031853
X0295629Y0320488
X0292247Y0311589
X0291179Y0305182
X0287086Y0295037
X0294383Y0286673
X0297586Y0274926
X0299544Y0298953
X0273Y03
X0265907Y0299131
X0272136Y0290232
X027445Y0308741
X02655Y03145
X0267687Y03422
X0276052Y034754
X0290112Y0346472
X03005Y03465
X0306129Y034309
X0305595Y0333658
X0298832Y0334548
X0314138Y0336683
X03125Y03475
X031218Y0323691
X0338697Y0333755
X0344Y0334
X0347283Y0216197
X0359Y02225
X02695Y0222
X0379Y02275
X0385
X0391Y02285
X0398
X04095Y0225
X0376761Y0270948
X0379Y0278
X0378882Y0287352
X0375956Y0289667
X03665Y0267
X037Y0317
X0419Y03385
T03
X003241Y013274
Y0152032
T04
X0215173Y0097587
X0225173
Y0107587
X0215173
X0205173
Y0097587
X0195173
Y0107587
X0185173
Y0097587
X0175173
Y0107587
X0165173
Y0097587
X0155173
Y0107587
X0145173
Y0097587
X0135173
Y0107587
X0125173
Y0097587
X0115173
Y0107587
X0105173
Y0097587
X0095173
Y0107587
X0085173
Y0097587
X0075173
Y0107587
X0065173
Y0097587
X0055173
Y0107587
X0045173
Y0097587
X0035173
Y0107587
X00055Y01765
Y01865
Y01965
Y02065
Y02165
Y02265
Y02365
Y02465
Y02565
X0052Y02495
Y02395
Y02295
X0064
Y02395
Y02495
X0076
Y02395
Y02295
X0088
Y02395
Y02495
X01215Y0249
Y0239
Y0229
X0134
Y0239
Y0249
X01635
Y0239
Y0229
X01755
Y0239
Y0249
X01875
Y0239
Y0229
X01995
Y0239
Y0249
X0395Y0272
X0405
Y0282
X0395
Y0294
X0405
Y0304
X0395
Y0314
X0405
Y0324
X0395
T05
X0239189Y0173378
Y0183378
Y0203378
Y0223378
T06
X0011Y0050087
X0026
X0041
X0056
X0071
X0086
X0101
X0116
X0131
X0146
X01695
X01845
X01995
X02145
X02295
X02445
X02595
X02745
X02895
X03045
T07
X0011Y0032
X0026
X0041
X0056
X0071
X0086
X0101
X0116
X0131
X0146
X01695
X01845
X01995
X02145
X02295
X02445
X02595
X02745
X02895
X03045
X0397Y0165
Y018
Y0195
Y021
X0044Y032424
X0059
X0074
X0149
X0164
X0179
T08
X0349Y0007
Y0027
X0359Y0017
X0369Y0007
Y0027
T09
X0410085Y0017594
X0244346Y0102587
X0279585Y0151594
X0016Y0102587
Y02955
X0244346
X0279585Y0328094
T10
X0328622Y0331012
X0351378
M30
