G04*
G04 #@! TF.GenerationSoftware,Altium Limited,Altium Designer,21.3.2 (30)*
G04*
G04 Layer_Color=16711935*
%FSLAX25Y25*%
%MOIN*%
G70*
G04*
G04 #@! TF.SameCoordinates,3DE5AAB8-A364-4EDB-86DF-7AF4210CBEDD*
G04*
G04*
G04 #@! TF.FilePolarity,Positive*
G04*
G01*
G75*
%ADD10C,0.00787*%
%ADD11C,0.00500*%
%ADD12C,0.00000*%
%ADD14C,0.02000*%
%ADD16C,0.00600*%
%ADD17C,0.00394*%
%ADD18C,0.00300*%
%ADD100C,0.00100*%
G36*
X21869Y325140D02*
Y323340D01*
X19569D01*
Y325140D01*
X21869D01*
D02*
G37*
G36*
X29769Y321440D02*
Y319640D01*
X27469D01*
Y321440D01*
X29769D01*
D02*
G37*
G36*
Y328840D02*
Y327040D01*
X27469D01*
Y328840D01*
X29769D01*
D02*
G37*
G36*
X126200Y324640D02*
Y322840D01*
X123900D01*
Y324640D01*
X126200D01*
D02*
G37*
G36*
X134100Y320940D02*
Y319140D01*
X131800D01*
Y320940D01*
X134100D01*
D02*
G37*
G36*
Y328340D02*
Y326540D01*
X131800D01*
Y328340D01*
X134100D01*
D02*
G37*
D10*
X44394Y315579D02*
X43606D01*
X44394D01*
X109894Y166701D02*
X109106D01*
X109894D01*
X304894Y40661D02*
X304106D01*
X304894D01*
X49713Y159146D02*
X48925D01*
X49713D01*
X157646Y281500D02*
X156858D01*
X157646D01*
X154185Y271260D02*
X153398D01*
X154185D01*
X60646Y281500D02*
X59858D01*
X60646D01*
X56685Y269760D02*
X55898D01*
X56685D01*
X175472Y166980D02*
X174685D01*
X175472D01*
X75472Y167980D02*
X74685D01*
X75472D01*
X239228Y161134D02*
X238441D01*
X239228D01*
X388732Y210000D02*
X387945D01*
X388732D01*
X321685Y130095D02*
X320898D01*
X321685D01*
X369894Y320161D02*
X369106D01*
X369894D01*
X149394Y315579D02*
X148606D01*
X149394D01*
X146394Y40661D02*
X145606D01*
X146394D01*
X112909Y147791D02*
X116650Y151532D01*
Y147791D02*
Y159209D01*
X110350D02*
X116650D01*
X110350Y147791D02*
Y159209D01*
Y147791D02*
X116650D01*
D11*
X34945Y319516D02*
X83055D01*
Y355736D01*
X34945D02*
X83055D01*
X34945Y319516D02*
Y355736D01*
X25850Y349091D02*
X32150D01*
X25850Y336492D02*
X32150D01*
Y349091D01*
X25850Y336492D02*
Y349091D01*
X17350D02*
X23650D01*
X17350Y336492D02*
X23650D01*
Y349091D01*
X17350Y336492D02*
Y349091D01*
X106724Y178236D02*
Y207764D01*
X147276D01*
Y178236D02*
Y207764D01*
X106724Y178236D02*
X147276D01*
X160445Y36724D02*
X313555D01*
X160445Y504D02*
Y36724D01*
Y504D02*
X313555D01*
Y36724D01*
X58138Y159992D02*
X75461D01*
X58138Y121803D02*
X75461D01*
X58138D02*
Y159992D01*
X75461Y121803D02*
Y159992D01*
X178035Y286689D02*
X184965D01*
X178035Y290311D02*
X184965D01*
Y286689D02*
Y290311D01*
X178035Y286689D02*
Y290311D01*
X130850Y349091D02*
X137150D01*
X130850Y336492D02*
X137150D01*
Y349091D01*
X130850Y336492D02*
Y349091D01*
X121850D02*
X128150D01*
X121850Y336492D02*
X128150D01*
Y349091D01*
X121850Y336492D02*
Y349091D01*
X191364Y330518D02*
Y347545D01*
X205636D01*
Y330518D02*
Y347545D01*
X191364Y330518D02*
X205636D01*
X199486Y308364D02*
X216514D01*
X199486D02*
Y322636D01*
X216514D01*
Y308364D02*
Y322636D01*
X208864Y330518D02*
Y347545D01*
X223136D01*
Y330518D02*
Y347545D01*
X208864Y330518D02*
X223136D01*
X86500D02*
Y347545D01*
X100772D01*
Y330518D02*
Y347545D01*
X86500Y330518D02*
X100772D01*
X104000D02*
Y347545D01*
X118272D01*
Y330518D02*
Y347545D01*
X104000Y330518D02*
X118272D01*
X94122Y308364D02*
X111150D01*
X94122D02*
Y322636D01*
X111150D01*
Y308364D02*
Y322636D01*
X210425Y271379D02*
X213575D01*
X210425Y265080D02*
X213575D01*
Y271379D01*
X210425Y265080D02*
Y271379D01*
X113925Y271295D02*
X117075D01*
X113925Y264996D02*
X117075D01*
Y271295D01*
X113925Y264996D02*
Y271295D01*
X204811Y276988D02*
Y283917D01*
X201189Y276988D02*
Y283917D01*
X204811D01*
X201189Y276988D02*
X204811D01*
X195425Y276573D02*
X198575D01*
X195425Y282872D02*
X198575D01*
X195425Y276573D02*
Y282872D01*
X198575Y276573D02*
Y282872D01*
X204811Y264035D02*
Y270965D01*
X201189Y264035D02*
Y270965D01*
X204811D01*
X201189Y264035D02*
X204811D01*
X195425Y265080D02*
X198575D01*
X195425Y271379D02*
X198575D01*
X195425Y265080D02*
Y271379D01*
X198575Y265080D02*
Y271379D01*
X165325Y283650D02*
X180675D01*
Y264350D02*
Y283650D01*
X165325Y264350D02*
X180675D01*
X165325D02*
Y283650D01*
X138850Y283425D02*
Y286575D01*
X145150Y283425D02*
Y286575D01*
X138850D02*
X145150D01*
X138850Y283425D02*
X145150D01*
X138850Y263425D02*
Y266575D01*
X145150Y263425D02*
Y266575D01*
X138850D02*
X145150D01*
X138850Y263425D02*
X145150D01*
X147059Y269291D02*
Y280709D01*
X141941D02*
X147059D01*
X141941Y269291D02*
Y280709D01*
Y269291D02*
X147059D01*
X107311Y277035D02*
Y283965D01*
X103689Y277035D02*
Y283965D01*
X107311D01*
X103689Y277035D02*
X107311D01*
X97425Y276621D02*
X100575D01*
X97425Y282920D02*
X100575D01*
X97425Y276621D02*
Y282920D01*
X100575Y276621D02*
Y282920D01*
X68325Y283650D02*
X83675D01*
Y264350D02*
Y283650D01*
X68325Y264350D02*
X83675D01*
X68325D02*
Y283650D01*
X97425Y264937D02*
X100575D01*
X97425Y271236D02*
X100575D01*
X97425Y264937D02*
Y271236D01*
X100575Y264937D02*
Y271236D01*
X107311Y263988D02*
Y270917D01*
X103689Y263988D02*
Y270917D01*
X107311D01*
X103689Y263988D02*
X107311D01*
X81083Y286189D02*
X88012D01*
X81083Y289811D02*
X88012D01*
Y286189D02*
Y289811D01*
X81083Y286189D02*
Y289811D01*
X41350Y281925D02*
Y285075D01*
X47650Y281925D02*
Y285075D01*
X41350D02*
X47650D01*
X41350Y281925D02*
X47650D01*
X49559Y267791D02*
Y279209D01*
X44441D02*
X49559D01*
X44441Y267791D02*
Y279209D01*
Y267791D02*
X49559D01*
X41205Y261425D02*
Y264575D01*
X47504Y261425D02*
Y264575D01*
X41205D02*
X47504D01*
X41205Y261425D02*
X47504D01*
X160496Y209925D02*
Y213075D01*
X166795Y209925D02*
Y213075D01*
X160496D02*
X166795D01*
X160496Y209925D02*
X166795D01*
X170394Y178201D02*
Y204972D01*
X189606D01*
Y178201D02*
Y204972D01*
X170394Y178201D02*
X189606D01*
X166295Y175925D02*
Y179075D01*
X159996Y175925D02*
Y179075D01*
Y175925D02*
X166295D01*
X159996Y179075D02*
X166295D01*
Y169925D02*
Y173075D01*
X159996Y169925D02*
Y173075D01*
Y169925D02*
X166295D01*
X159996Y173075D02*
X166295D01*
X70394Y179201D02*
Y205972D01*
X89606D01*
Y179201D02*
Y205972D01*
X70394Y179201D02*
X89606D01*
X59996Y210925D02*
Y214075D01*
X66295Y210925D02*
Y214075D01*
X59996D02*
X66295D01*
X59996Y210925D02*
X66295D01*
X66150Y177425D02*
Y180575D01*
X59850Y177425D02*
Y180575D01*
Y177425D02*
X66150D01*
X59850Y180575D02*
X66150D01*
Y170425D02*
Y173575D01*
X59850Y170425D02*
Y173575D01*
Y170425D02*
X66150D01*
X59850Y173575D02*
X66150D01*
X100189Y169083D02*
Y176012D01*
X103811Y169083D02*
Y176012D01*
X100189Y169083D02*
X103811D01*
X100189Y176012D02*
X103811D01*
Y209988D02*
Y216917D01*
X100189Y209988D02*
Y216917D01*
X103811D01*
X100189Y209988D02*
X103811D01*
X234189Y165504D02*
Y242669D01*
X257811D01*
Y165504D02*
Y242669D01*
X234189Y165504D02*
X257811D01*
X224811Y216488D02*
Y223417D01*
X221189Y216488D02*
Y223417D01*
X224811D01*
X221189Y216488D02*
X224811D01*
X231311Y216535D02*
Y223465D01*
X227689Y216535D02*
Y223465D01*
X231311D01*
X227689Y216535D02*
X231311D01*
X221189Y172488D02*
Y179417D01*
X224811Y172488D02*
Y179417D01*
X221189Y172488D02*
X224811D01*
X221189Y179417D02*
X224811D01*
X227689Y172488D02*
Y179417D01*
X231311Y172488D02*
Y179417D01*
X227689Y172488D02*
X231311D01*
X227689Y179417D02*
X231311D01*
X152150Y124425D02*
Y127575D01*
X145850Y124425D02*
Y127575D01*
Y124425D02*
X152150D01*
X145850Y127575D02*
X152150D01*
Y130925D02*
Y134075D01*
X145850Y130925D02*
Y134075D01*
Y130925D02*
X152150D01*
X145850Y134075D02*
X152150D01*
Y137425D02*
Y140575D01*
X145850Y137425D02*
Y140575D01*
Y137425D02*
X152150D01*
X145850Y140575D02*
X152150D01*
Y143925D02*
Y147075D01*
X145850Y143925D02*
Y147075D01*
Y143925D02*
X152150D01*
X145850Y147075D02*
X152150D01*
Y150425D02*
Y153575D01*
X145850Y150425D02*
Y153575D01*
Y150425D02*
X152150D01*
X145850Y153575D02*
X152150D01*
X123758Y131504D02*
X126908D01*
X123758Y125205D02*
X126908D01*
Y131504D01*
X123758Y125205D02*
Y131504D01*
X117092D02*
X120241D01*
X117092Y125205D02*
X120241D01*
Y131504D01*
X117092Y125205D02*
Y131504D01*
X110425D02*
X113575D01*
X110425Y125205D02*
X113575D01*
Y131504D01*
X110425Y125205D02*
Y131504D01*
X130425Y131650D02*
X133575D01*
X130425Y125350D02*
X133575D01*
Y131650D01*
X130425Y125350D02*
Y131650D01*
X127988Y151311D02*
X134917D01*
X127988Y147689D02*
X134917D01*
X127988D02*
Y151311D01*
X134917Y147689D02*
Y151311D01*
X128035Y159311D02*
X134965D01*
X128035Y155689D02*
X134965D01*
X128035D02*
Y159311D01*
X134965Y155689D02*
Y159311D01*
X94488Y155189D02*
X101417D01*
X94488Y158811D02*
X101417D01*
Y155189D02*
Y158811D01*
X94488Y155189D02*
Y158811D01*
X94535Y147689D02*
X101465D01*
X94535Y151311D02*
X101465D01*
Y147689D02*
Y151311D01*
X94535Y147689D02*
Y151311D01*
X101004Y124425D02*
Y127575D01*
X94705Y124425D02*
Y127575D01*
Y124425D02*
X101004D01*
X94705Y127575D02*
X101004D01*
X94705Y137425D02*
Y140575D01*
X101004Y137425D02*
Y140575D01*
X94705D02*
X101004D01*
X94705Y137425D02*
X101004D01*
Y130925D02*
Y134075D01*
X94705Y130925D02*
Y134075D01*
Y130925D02*
X101004D01*
X94705Y134075D02*
X101004D01*
X44689Y129035D02*
Y135965D01*
X48311Y129035D02*
Y135965D01*
X44689Y129035D02*
X48311D01*
X44689Y135965D02*
X48311D01*
X17189Y131583D02*
Y138512D01*
X20811Y131583D02*
Y138512D01*
X17189Y131583D02*
X20811D01*
X17189Y138512D02*
X20811D01*
Y145488D02*
Y152417D01*
X17189Y145488D02*
Y152417D01*
X20811D01*
X17189Y145488D02*
X20811D01*
X358311Y249035D02*
Y255965D01*
X354689Y249035D02*
Y255965D01*
X358311D01*
X354689Y249035D02*
X358311D01*
X312925Y243850D02*
X316075D01*
X312925Y250150D02*
X316075D01*
X312925Y243850D02*
Y250150D01*
X316075Y243850D02*
Y250150D01*
X361350Y241425D02*
Y244575D01*
X367650Y241425D02*
Y244575D01*
X361350D02*
X367650D01*
X361350Y241425D02*
X367650D01*
X341650Y216425D02*
Y219575D01*
X335350Y216425D02*
Y219575D01*
Y216425D02*
X341650D01*
X335350Y219575D02*
X341650D01*
X361350Y235425D02*
Y238575D01*
X367650Y235425D02*
Y238575D01*
X361350D02*
X367650D01*
X361350Y235425D02*
X367650D01*
X392276Y155945D02*
Y219055D01*
Y155945D02*
X428496D01*
Y219055D01*
X392276D02*
X428496D01*
X344024Y160303D02*
Y163453D01*
X350323Y160303D02*
Y163453D01*
X344024D02*
X350323D01*
X344024Y160303D02*
X350323D01*
X344024Y172303D02*
Y175453D01*
X350323Y172303D02*
Y175453D01*
X344024D02*
X350323D01*
X344024Y172303D02*
X350323D01*
X344024Y184303D02*
Y187453D01*
X350323Y184303D02*
Y187453D01*
X344024D02*
X350323D01*
X344024Y184303D02*
X350323D01*
X344024Y196303D02*
Y199453D01*
X350323Y196303D02*
Y199453D01*
X344024D02*
X350323D01*
X344024Y196303D02*
X350323D01*
X409189Y124535D02*
Y131465D01*
X412811Y124535D02*
Y131465D01*
X409189Y124535D02*
X412811D01*
X409189Y131465D02*
X412811D01*
X402689Y124535D02*
Y131465D01*
X406311Y124535D02*
Y131465D01*
X402689Y124535D02*
X406311D01*
X402689Y131465D02*
X406311D01*
X395689Y124535D02*
Y131465D01*
X399311Y124535D02*
Y131465D01*
X395689Y124535D02*
X399311D01*
X395689Y131465D02*
X399311D01*
X354425Y300705D02*
X357575D01*
X354425Y307004D02*
X357575D01*
X354425Y300705D02*
Y307004D01*
X357575Y300705D02*
Y307004D01*
X347925Y300705D02*
X351075D01*
X347925Y307004D02*
X351075D01*
X347925Y300705D02*
Y307004D01*
X351075Y300705D02*
Y307004D01*
X318565Y286295D02*
X321714D01*
X318565Y279996D02*
X321714D01*
Y286295D01*
X318565Y279996D02*
Y286295D01*
X318425Y275295D02*
X321575D01*
X318425Y268996D02*
X321575D01*
Y275295D01*
X318425Y268996D02*
Y275295D01*
X313583Y293311D02*
X320512D01*
X313583Y289689D02*
X320512D01*
X313583D02*
Y293311D01*
X320512Y289689D02*
Y293311D01*
X313583Y299311D02*
X320512D01*
X313583Y295689D02*
X320512D01*
X313583D02*
Y299311D01*
X320512Y295689D02*
Y299311D01*
X334311Y300988D02*
Y307917D01*
X330689Y300988D02*
Y307917D01*
X334311D01*
X330689Y300988D02*
X334311D01*
X328311D02*
Y307917D01*
X324689Y300988D02*
Y307917D01*
X328311D01*
X324689Y300988D02*
X328311D01*
X346500Y4500D02*
Y29500D01*
Y4500D02*
X371500D01*
Y29500D01*
X346500D02*
X371500D01*
X327256Y35606D02*
Y137969D01*
Y35606D02*
X390248D01*
Y137969D01*
X327256D02*
X390248D01*
X356295Y317425D02*
Y320575D01*
X349996Y317425D02*
Y320575D01*
Y317425D02*
X356295D01*
X349996Y320575D02*
X356295D01*
X322205Y317425D02*
Y320575D01*
X328504Y317425D02*
Y320575D01*
X322205D02*
X328504D01*
X322205Y317425D02*
X328504D01*
X364254Y326451D02*
Y346549D01*
X374746D01*
Y326451D02*
Y346549D01*
X364254Y326451D02*
X374746D01*
X357598Y326799D02*
Y355736D01*
X322402D02*
X357598D01*
X322402Y326799D02*
Y355736D01*
Y326799D02*
X357598D01*
X139945Y319516D02*
X188055D01*
Y355736D01*
X139945D02*
X188055D01*
X139945Y319516D02*
Y355736D01*
X1945Y36724D02*
X155055D01*
X1945Y504D02*
Y36724D01*
Y504D02*
X155055D01*
Y36724D01*
D12*
X119209Y146413D02*
X118665Y147162D01*
X117784Y146876D01*
Y145951D01*
X118665Y145665D01*
X119209Y146413D01*
X333800Y257287D02*
X334152Y256438D01*
X335000Y256087D01*
X335848Y256438D01*
X336200Y257287D01*
D14*
X7500Y61087D02*
X7214Y61968D01*
X6464Y62513D01*
X5536D01*
X4786Y61968D01*
X4500Y61087D01*
X4786Y60205D01*
X5536Y59660D01*
X6464D01*
X7214Y60205D01*
X7500Y61087D01*
X166000D02*
X165714Y61968D01*
X164963Y62513D01*
X164037D01*
X163286Y61968D01*
X163000Y61087D01*
X163286Y60205D01*
X164037Y59660D01*
X164963D01*
X165714Y60205D01*
X166000Y61087D01*
D16*
X126400Y329340D02*
X131600D01*
Y318140D02*
Y329340D01*
X126400Y318140D02*
X131600D01*
X126400D02*
Y329340D01*
X22069Y329840D02*
X27269D01*
Y318640D02*
Y329840D01*
X22069Y318640D02*
X27269D01*
X22069D02*
Y329840D01*
X800Y38587D02*
Y65787D01*
X156200D01*
Y38587D02*
Y65787D01*
X800Y38587D02*
X156200D01*
X159300D02*
Y65787D01*
X314700D01*
Y38587D02*
Y65787D01*
X159300Y38587D02*
X314700D01*
D17*
X225000Y135000D02*
X226339Y132874D01*
X223622D02*
X225000Y135000D01*
X223622Y132874D02*
X226339D01*
X221850Y127402D02*
Y140000D01*
X228150Y127402D02*
Y140000D01*
X221850D02*
X228150D01*
X221850Y127402D02*
X228150D01*
X210875Y135000D02*
X212214Y132874D01*
X209497D02*
X210875Y135000D01*
X209497Y132874D02*
X212214D01*
X207725Y127402D02*
Y140000D01*
X214025Y127402D02*
Y140000D01*
X207725D02*
X214025D01*
X207725Y127402D02*
X214025D01*
X182625Y135000D02*
X183964Y132874D01*
X181247D02*
X182625Y135000D01*
X181247Y132874D02*
X183964D01*
X179475Y127402D02*
Y140000D01*
X185775Y127402D02*
Y140000D01*
X179475D02*
X185775D01*
X179475Y127402D02*
X185775D01*
X196750Y135000D02*
X198089Y132874D01*
X195372D02*
X196750Y135000D01*
X195372Y132874D02*
X198089D01*
X193600Y127402D02*
Y140000D01*
X199900Y127402D02*
Y140000D01*
X193600D02*
X199900D01*
X193600Y127402D02*
X199900D01*
X168500Y135000D02*
X169839Y132874D01*
X167122D02*
X168500Y135000D01*
X167122Y132874D02*
X169839D01*
X165350Y127402D02*
Y140000D01*
X171650Y127402D02*
Y140000D01*
X165350D02*
X171650D01*
X165350Y127402D02*
X171650D01*
X330374Y197878D02*
X332500Y199216D01*
X330374Y197878D02*
X332500Y196500D01*
Y199216D01*
X325374Y194728D02*
X337972D01*
X325374Y201028D02*
X337972D01*
X325374Y194728D02*
Y201028D01*
X337972Y194728D02*
Y201028D01*
X330374Y173878D02*
X332500Y175216D01*
X330374Y173878D02*
X332500Y172500D01*
Y175216D01*
X325374Y170728D02*
X337972D01*
X325374Y177028D02*
X337972D01*
X325374Y170728D02*
Y177028D01*
X337972Y170728D02*
Y177028D01*
X330374Y161878D02*
X332500Y163216D01*
X330374Y161878D02*
X332500Y160500D01*
Y163216D01*
X325374Y158728D02*
X337972D01*
X325374Y165028D02*
X337972D01*
X325374Y158728D02*
Y165028D01*
X337972Y158728D02*
Y165028D01*
X330374Y185878D02*
X332500Y187216D01*
X330374Y185878D02*
X332500Y184500D01*
Y187216D01*
X325374Y182728D02*
X337972D01*
X325374Y189028D02*
X337972D01*
X325374Y182728D02*
Y189028D01*
X337972Y182728D02*
Y189028D01*
D18*
X327400Y256152D02*
X330732Y252820D01*
X327400D02*
X330732Y256152D01*
X327400Y254486D02*
X330732D01*
X329066Y252820D02*
Y256152D01*
D100*
X327150Y222887D02*
Y257287D01*
X342850D01*
Y222887D02*
Y257287D01*
X327150Y222887D02*
X342850D01*
Y256037D02*
X347200D01*
Y254137D02*
Y256037D01*
X342850Y254137D02*
X347200D01*
X342850D02*
Y256037D01*
Y251037D02*
X347200D01*
Y249137D02*
Y251037D01*
X342850Y249137D02*
X347200D01*
X342850D02*
Y251037D01*
Y246037D02*
X347200D01*
Y244137D02*
Y246037D01*
X342850Y244137D02*
X347200D01*
X342850D02*
Y246037D01*
Y241037D02*
X347200D01*
Y239137D02*
Y241037D01*
X342850Y239137D02*
X347200D01*
X342850D02*
Y241037D01*
Y236037D02*
X347200D01*
Y234137D02*
Y236037D01*
X342850Y234137D02*
X347200D01*
X342850D02*
Y236037D01*
Y231037D02*
X347200D01*
Y229137D02*
Y231037D01*
X342850Y229137D02*
X347200D01*
X342850D02*
Y231037D01*
Y226037D02*
X347200D01*
Y224137D02*
Y226037D01*
X342850Y224137D02*
X347200D01*
X342850D02*
Y226037D01*
X322800Y224137D02*
X327150D01*
X322800D02*
Y226037D01*
X327150D01*
Y224137D02*
Y226037D01*
X322800Y229137D02*
X327150D01*
X322800D02*
Y231037D01*
X327150D01*
Y229137D02*
Y231037D01*
X322800Y234137D02*
X327150D01*
X322800D02*
Y236037D01*
X327150D01*
Y234137D02*
Y236037D01*
X322800Y239137D02*
X327150D01*
X322800D02*
Y241037D01*
X327150D01*
Y239137D02*
Y241037D01*
X322800Y244137D02*
X327150D01*
X322800D02*
Y246037D01*
X327150D01*
Y244137D02*
Y246037D01*
X322800Y249137D02*
X327150D01*
X322800D02*
Y251037D01*
X327150D01*
Y249137D02*
Y251037D01*
X322800Y254137D02*
X327150D01*
X322800D02*
Y256037D01*
X327150D01*
Y254137D02*
Y256037D01*
M02*
