G04*
G04 #@! TF.GenerationSoftware,Altium Limited,Altium Designer,21.3.2 (30)*
G04*
G04 Layer_Color=255*
%FSLAX25Y25*%
%MOIN*%
G70*
G04*
G04 #@! TF.SameCoordinates,3DE5AAB8-A364-4EDB-86DF-7AF4210CBEDD*
G04*
G04*
G04 #@! TF.FilePolarity,Positive*
G04*
G01*
G75*
%ADD20R,0.05906X0.04921*%
G04:AMPARAMS|DCode=21|XSize=80.71mil|YSize=23.62mil|CornerRadius=2.95mil|HoleSize=0mil|Usage=FLASHONLY|Rotation=90.000|XOffset=0mil|YOffset=0mil|HoleType=Round|Shape=RoundedRectangle|*
%AMROUNDEDRECTD21*
21,1,0.08071,0.01772,0,0,90.0*
21,1,0.07480,0.02362,0,0,90.0*
1,1,0.00591,0.00886,0.03740*
1,1,0.00591,0.00886,-0.03740*
1,1,0.00591,-0.00886,-0.03740*
1,1,0.00591,-0.00886,0.03740*
%
%ADD21ROUNDEDRECTD21*%
%ADD22R,0.03543X0.01000*%
%ADD23R,0.01000X0.03543*%
G04:AMPARAMS|DCode=24|XSize=61.81mil|YSize=16.14mil|CornerRadius=2.02mil|HoleSize=0mil|Usage=FLASHONLY|Rotation=0.000|XOffset=0mil|YOffset=0mil|HoleType=Round|Shape=RoundedRectangle|*
%AMROUNDEDRECTD24*
21,1,0.06181,0.01211,0,0,0.0*
21,1,0.05778,0.01614,0,0,0.0*
1,1,0.00404,0.02889,-0.00605*
1,1,0.00404,-0.02889,-0.00605*
1,1,0.00404,-0.02889,0.00605*
1,1,0.00404,0.02889,0.00605*
%
%ADD24ROUNDEDRECTD24*%
%ADD25R,0.03819X0.03701*%
%ADD26R,0.05512X0.03937*%
%ADD27R,0.08346X0.08976*%
%ADD28R,0.08976X0.08346*%
%ADD29R,0.03543X0.02559*%
%ADD30R,0.03701X0.03819*%
%ADD31R,0.07756X0.02323*%
%ADD32R,0.02559X0.03543*%
G04:AMPARAMS|DCode=33|XSize=39.37mil|YSize=25.59mil|CornerRadius=3.2mil|HoleSize=0mil|Usage=FLASHONLY|Rotation=180.000|XOffset=0mil|YOffset=0mil|HoleType=Round|Shape=RoundedRectangle|*
%AMROUNDEDRECTD33*
21,1,0.03937,0.01919,0,0,180.0*
21,1,0.03297,0.02559,0,0,180.0*
1,1,0.00640,-0.01649,0.00960*
1,1,0.00640,0.01649,0.00960*
1,1,0.00640,0.01649,-0.00960*
1,1,0.00640,-0.01649,-0.00960*
%
%ADD33ROUNDEDRECTD33*%
G04:AMPARAMS|DCode=34|XSize=55.51mil|YSize=57.87mil|CornerRadius=6.94mil|HoleSize=0mil|Usage=FLASHONLY|Rotation=90.000|XOffset=0mil|YOffset=0mil|HoleType=Round|Shape=RoundedRectangle|*
%AMROUNDEDRECTD34*
21,1,0.05551,0.04400,0,0,90.0*
21,1,0.04163,0.05787,0,0,90.0*
1,1,0.01388,0.02200,0.02082*
1,1,0.01388,0.02200,-0.02082*
1,1,0.01388,-0.02200,-0.02082*
1,1,0.01388,-0.02200,0.02082*
%
%ADD34ROUNDEDRECTD34*%
%ADD35R,0.05906X0.05512*%
%ADD37R,0.06700X0.02100*%
%ADD38R,0.05512X0.05906*%
G04:AMPARAMS|DCode=39|XSize=55.51mil|YSize=30.32mil|CornerRadius=3.79mil|HoleSize=0mil|Usage=FLASHONLY|Rotation=0.000|XOffset=0mil|YOffset=0mil|HoleType=Round|Shape=RoundedRectangle|*
%AMROUNDEDRECTD39*
21,1,0.05551,0.02274,0,0,0.0*
21,1,0.04793,0.03032,0,0,0.0*
1,1,0.00758,0.02397,-0.01137*
1,1,0.00758,-0.02397,-0.01137*
1,1,0.00758,-0.02397,0.01137*
1,1,0.00758,0.02397,0.01137*
%
%ADD39ROUNDEDRECTD39*%
G04:AMPARAMS|DCode=40|XSize=85.43mil|YSize=61.81mil|CornerRadius=7.73mil|HoleSize=0mil|Usage=FLASHONLY|Rotation=90.000|XOffset=0mil|YOffset=0mil|HoleType=Round|Shape=RoundedRectangle|*
%AMROUNDEDRECTD40*
21,1,0.08543,0.04636,0,0,90.0*
21,1,0.06998,0.06181,0,0,90.0*
1,1,0.01545,0.02318,0.03499*
1,1,0.01545,0.02318,-0.03499*
1,1,0.01545,-0.02318,-0.03499*
1,1,0.01545,-0.02318,0.03499*
%
%ADD40ROUNDEDRECTD40*%
%ADD41R,0.02362X0.04488*%
%ADD42R,0.01181X0.04488*%
%ADD82R,0.12205X0.12205*%
%ADD83R,0.04331X0.02362*%
%ADD84C,0.02362*%
%ADD85R,0.05906X0.05906*%
%ADD86C,0.05906*%
%ADD87C,0.24410*%
%ADD88C,0.08268*%
%ADD89R,0.08268X0.08268*%
%ADD90C,0.05937*%
%ADD91R,0.05937X0.05937*%
%ADD92C,0.07500*%
%ADD93R,0.08268X0.08268*%
%ADD94C,0.08858*%
%ADD95C,0.02559*%
%ADD96O,0.03543X0.07087*%
%ADD97O,0.04134X0.08268*%
%ADD98R,0.05906X0.05906*%
%ADD99C,0.07100*%
D20*
X29000Y349583D02*
D03*
Y336000D02*
D03*
X20500Y349583D02*
D03*
Y336000D02*
D03*
X134000Y349583D02*
D03*
Y336000D02*
D03*
X125000Y349583D02*
D03*
Y336000D02*
D03*
D21*
X109500Y174673D02*
D03*
X114500D02*
D03*
X119500D02*
D03*
X124500D02*
D03*
X129500D02*
D03*
X134500D02*
D03*
X139500D02*
D03*
X144500D02*
D03*
Y211327D02*
D03*
X139500D02*
D03*
X134500D02*
D03*
X129500D02*
D03*
X124500D02*
D03*
X119500D02*
D03*
X114500D02*
D03*
X109500D02*
D03*
D22*
X348197Y288405D02*
D03*
Y286437D02*
D03*
Y284469D02*
D03*
Y282500D02*
D03*
Y280532D02*
D03*
Y278563D02*
D03*
Y276594D02*
D03*
X327803D02*
D03*
Y278563D02*
D03*
Y280532D02*
D03*
Y282500D02*
D03*
Y284469D02*
D03*
Y286437D02*
D03*
Y288405D02*
D03*
D23*
X343905Y272303D02*
D03*
X341937D02*
D03*
X339968D02*
D03*
X338000D02*
D03*
X336032D02*
D03*
X334063D02*
D03*
X332095D02*
D03*
Y292697D02*
D03*
X334063D02*
D03*
X336032D02*
D03*
X338000D02*
D03*
X339968D02*
D03*
X341937D02*
D03*
X343905D02*
D03*
D24*
X55500Y157531D02*
D03*
Y154972D02*
D03*
Y152413D02*
D03*
Y149854D02*
D03*
Y147295D02*
D03*
Y144736D02*
D03*
Y142177D02*
D03*
Y139618D02*
D03*
Y137059D02*
D03*
Y134500D02*
D03*
Y131941D02*
D03*
Y129382D02*
D03*
Y126823D02*
D03*
Y124264D02*
D03*
X78098D02*
D03*
Y126823D02*
D03*
Y129382D02*
D03*
Y131941D02*
D03*
Y134500D02*
D03*
Y137059D02*
D03*
Y139618D02*
D03*
Y142177D02*
D03*
Y144736D02*
D03*
Y147295D02*
D03*
Y149854D02*
D03*
Y152413D02*
D03*
Y154972D02*
D03*
Y157531D02*
D03*
D25*
X178547Y288500D02*
D03*
X184453D02*
D03*
X81595Y288000D02*
D03*
X87500D02*
D03*
X134406Y149500D02*
D03*
X128500D02*
D03*
X134453Y157500D02*
D03*
X128547D02*
D03*
X95000Y157000D02*
D03*
X100906D02*
D03*
X95047Y149500D02*
D03*
X100953D02*
D03*
X320000Y291500D02*
D03*
X314094D02*
D03*
X320000Y297500D02*
D03*
X314094D02*
D03*
D26*
X133331Y320000D02*
D03*
Y327480D02*
D03*
X124669Y323740D02*
D03*
X29000Y320500D02*
D03*
Y327980D02*
D03*
X20339Y324240D02*
D03*
D27*
X198500Y347555D02*
D03*
Y330508D02*
D03*
X216000Y347555D02*
D03*
Y330508D02*
D03*
X93636Y347555D02*
D03*
Y330508D02*
D03*
X111136Y347555D02*
D03*
Y330508D02*
D03*
D28*
X199476Y315500D02*
D03*
X216524D02*
D03*
X94112D02*
D03*
X111159D02*
D03*
D29*
X212000Y271084D02*
D03*
Y265376D02*
D03*
X115500Y271000D02*
D03*
Y265291D02*
D03*
X197000Y276869D02*
D03*
Y282577D02*
D03*
Y265376D02*
D03*
Y271084D02*
D03*
X99000Y276916D02*
D03*
Y282624D02*
D03*
Y265232D02*
D03*
Y270941D02*
D03*
X125333Y131209D02*
D03*
Y125500D02*
D03*
X118667Y131209D02*
D03*
Y125500D02*
D03*
X112000Y131209D02*
D03*
Y125500D02*
D03*
X132000Y131354D02*
D03*
Y125646D02*
D03*
X314500Y244146D02*
D03*
Y249854D02*
D03*
X356000Y301000D02*
D03*
Y306709D02*
D03*
X349500Y301000D02*
D03*
Y306709D02*
D03*
X320139Y286000D02*
D03*
Y280291D02*
D03*
X320000Y275000D02*
D03*
Y269291D02*
D03*
D30*
X203000Y277500D02*
D03*
Y283405D02*
D03*
Y264547D02*
D03*
Y270453D02*
D03*
X105500Y277547D02*
D03*
Y283453D02*
D03*
Y264500D02*
D03*
Y270406D02*
D03*
X102000Y175500D02*
D03*
Y169595D02*
D03*
Y210500D02*
D03*
Y216406D02*
D03*
X223000Y217000D02*
D03*
Y222905D02*
D03*
X229500Y217047D02*
D03*
Y222953D02*
D03*
X223000Y178905D02*
D03*
Y173000D02*
D03*
X229500Y178905D02*
D03*
Y173000D02*
D03*
X46500Y135453D02*
D03*
Y129547D02*
D03*
X19000Y138000D02*
D03*
Y132095D02*
D03*
Y146000D02*
D03*
Y151906D02*
D03*
X356500Y249547D02*
D03*
Y255453D02*
D03*
X411000Y130953D02*
D03*
Y125047D02*
D03*
X404500Y130953D02*
D03*
Y125047D02*
D03*
X397500Y130953D02*
D03*
Y125047D02*
D03*
X332500Y301500D02*
D03*
Y307405D02*
D03*
X326500Y301500D02*
D03*
Y307405D02*
D03*
D31*
X163276Y281500D02*
D03*
Y276500D02*
D03*
Y271500D02*
D03*
Y266500D02*
D03*
X182724D02*
D03*
Y271500D02*
D03*
Y276500D02*
D03*
Y281500D02*
D03*
X66276D02*
D03*
Y276500D02*
D03*
Y271500D02*
D03*
Y266500D02*
D03*
X85724D02*
D03*
Y271500D02*
D03*
Y276500D02*
D03*
Y281500D02*
D03*
D32*
X139146Y285000D02*
D03*
X144854D02*
D03*
X139146Y265000D02*
D03*
X144854D02*
D03*
X41646Y283500D02*
D03*
X47354D02*
D03*
X41500Y263000D02*
D03*
X47209D02*
D03*
X160791Y211500D02*
D03*
X166500D02*
D03*
X166000Y177500D02*
D03*
X160291D02*
D03*
X166000Y171500D02*
D03*
X160291D02*
D03*
X60291Y212500D02*
D03*
X66000D02*
D03*
X65854Y179000D02*
D03*
X60146D02*
D03*
X65854Y172000D02*
D03*
X60146D02*
D03*
X151854Y126000D02*
D03*
X146146D02*
D03*
X151854Y132500D02*
D03*
X146146D02*
D03*
X151854Y139000D02*
D03*
X146146D02*
D03*
X151854Y145500D02*
D03*
X146146D02*
D03*
X151854Y152000D02*
D03*
X146146D02*
D03*
X100709Y126000D02*
D03*
X95000D02*
D03*
Y139000D02*
D03*
X100709D02*
D03*
Y132500D02*
D03*
X95000D02*
D03*
X361646Y243000D02*
D03*
X367354D02*
D03*
X341354Y218000D02*
D03*
X335646D02*
D03*
X361646Y237000D02*
D03*
X367354D02*
D03*
X344319Y161878D02*
D03*
X350028D02*
D03*
X344319Y173878D02*
D03*
X350028D02*
D03*
X344319Y185878D02*
D03*
X350028D02*
D03*
X344319Y197878D02*
D03*
X350028D02*
D03*
X356000Y319000D02*
D03*
X350291D02*
D03*
X322500D02*
D03*
X328209D02*
D03*
D33*
X149224Y271260D02*
D03*
Y278740D02*
D03*
X139776Y275000D02*
D03*
X51724Y269760D02*
D03*
Y277240D02*
D03*
X42276Y273500D02*
D03*
D34*
X175000Y210681D02*
D03*
X185000D02*
D03*
Y172492D02*
D03*
X175000D02*
D03*
X75000Y211681D02*
D03*
X85000D02*
D03*
Y173492D02*
D03*
X75000D02*
D03*
D35*
X225000Y127795D02*
D03*
Y139606D02*
D03*
X210875Y127795D02*
D03*
Y139606D02*
D03*
X182625Y127795D02*
D03*
Y139606D02*
D03*
X196750Y127795D02*
D03*
Y139606D02*
D03*
X168500Y127795D02*
D03*
Y139606D02*
D03*
D37*
X345250Y255087D02*
D03*
Y250087D02*
D03*
Y245087D02*
D03*
Y240087D02*
D03*
Y235087D02*
D03*
Y230087D02*
D03*
Y225087D02*
D03*
X324750D02*
D03*
Y230087D02*
D03*
Y235087D02*
D03*
Y240087D02*
D03*
Y245087D02*
D03*
Y250087D02*
D03*
Y255087D02*
D03*
D38*
X337579Y197878D02*
D03*
X325768D02*
D03*
X337579Y173878D02*
D03*
X325768D02*
D03*
X337579Y161878D02*
D03*
X325768D02*
D03*
X337579Y185878D02*
D03*
X325768D02*
D03*
D39*
X389500Y95095D02*
D03*
Y100094D02*
D03*
Y105095D02*
D03*
Y110094D02*
D03*
Y115094D02*
D03*
Y120095D02*
D03*
Y125094D02*
D03*
Y130095D02*
D03*
Y51000D02*
D03*
Y46000D02*
D03*
X328004Y51000D02*
D03*
Y46000D02*
D03*
Y95095D02*
D03*
Y100094D02*
D03*
Y105095D02*
D03*
Y110094D02*
D03*
Y115094D02*
D03*
Y120095D02*
D03*
Y125094D02*
D03*
Y130095D02*
D03*
X389500Y41000D02*
D03*
X328004D02*
D03*
D40*
X369500Y328370D02*
D03*
Y344630D02*
D03*
D41*
X327402Y326799D02*
D03*
X330551D02*
D03*
X349449D02*
D03*
X352598D02*
D03*
D42*
X333110D02*
D03*
X335079D02*
D03*
X337047D02*
D03*
X339016D02*
D03*
X340984D02*
D03*
X342953D02*
D03*
X344921D02*
D03*
X346890D02*
D03*
D82*
X338000Y282500D02*
D03*
D83*
X108382Y149760D02*
D03*
Y157240D02*
D03*
X118618D02*
D03*
Y153500D02*
D03*
Y149760D02*
D03*
D84*
X401894Y62496D02*
D03*
X389000Y57000D02*
D03*
X364894Y12996D02*
D03*
X352894Y12496D02*
D03*
X353394Y21496D02*
D03*
X364894D02*
D03*
X358894Y4496D02*
D03*
X361394Y8996D02*
D03*
X356394D02*
D03*
X219495Y252001D02*
D03*
X216995Y260001D02*
D03*
X230000Y265500D02*
D03*
X224995Y262501D02*
D03*
X192293Y287316D02*
D03*
X199995Y301501D02*
D03*
X132495Y286501D02*
D03*
X118995Y309501D02*
D03*
X87400Y294981D02*
D03*
X44495Y295501D02*
D03*
X38500Y292500D02*
D03*
X51995Y203001D02*
D03*
X51495Y210001D02*
D03*
X199493Y206936D02*
D03*
X205995Y207501D02*
D03*
X220995Y200501D02*
D03*
X227495Y202001D02*
D03*
X224495Y207501D02*
D03*
X222945Y235158D02*
D03*
X228510Y235953D02*
D03*
X228495Y244001D02*
D03*
X65495Y290001D02*
D03*
X120995Y302001D02*
D03*
X113495Y300501D02*
D03*
X88495Y302001D02*
D03*
X93495Y292501D02*
D03*
X78995Y295501D02*
D03*
X68495Y295001D02*
D03*
X59205Y294994D02*
D03*
X50995Y295001D02*
D03*
X173948Y297176D02*
D03*
X159995Y297501D02*
D03*
X129203Y267019D02*
D03*
X132212Y270458D02*
D03*
X132995Y279001D02*
D03*
X134995Y292001D02*
D03*
X147687Y296036D02*
D03*
X137495Y298001D02*
D03*
X132495D02*
D03*
X137495Y304001D02*
D03*
X132495D02*
D03*
X241185Y319894D02*
D03*
X243335Y325912D02*
D03*
X242905Y340957D02*
D03*
X234952Y340313D02*
D03*
X233877Y326772D02*
D03*
X230653Y315810D02*
D03*
X221196Y297540D02*
D03*
X199495Y292501D02*
D03*
X191495Y300001D02*
D03*
X285000Y118000D02*
D03*
X309000Y105000D02*
D03*
X272500Y95000D02*
D03*
X409500Y225000D02*
D03*
X258000Y164000D02*
D03*
X251000Y173000D02*
D03*
X252000Y181500D02*
D03*
X254000Y191000D02*
D03*
X265500Y231500D02*
D03*
X297000Y167000D02*
D03*
X292500Y177000D02*
D03*
X279970Y178166D02*
D03*
X263500Y180500D02*
D03*
X267500Y191000D02*
D03*
X366500Y267000D02*
D03*
X387000Y198000D02*
D03*
X379000Y227500D02*
D03*
X292000Y195000D02*
D03*
X279000Y194000D02*
D03*
X273500Y210000D02*
D03*
X295000Y231000D02*
D03*
X274000Y232500D02*
D03*
Y247000D02*
D03*
X288866Y268875D02*
D03*
X260212Y260332D02*
D03*
X294383Y286673D02*
D03*
X276586Y267629D02*
D03*
X265907Y299131D02*
D03*
X273000Y300000D02*
D03*
X291179Y305182D02*
D03*
X303282Y311233D02*
D03*
X312180Y323691D02*
D03*
X295629Y320488D02*
D03*
X305595Y333658D02*
D03*
X312500Y347500D02*
D03*
X300500Y346500D02*
D03*
X265500Y314500D02*
D03*
X267687Y342200D02*
D03*
X276052Y347540D02*
D03*
X290112Y346472D02*
D03*
X314138Y336683D02*
D03*
X298832Y334548D02*
D03*
X306129Y343090D02*
D03*
X274450Y308741D02*
D03*
X292247Y311589D02*
D03*
X303994Y318530D02*
D03*
X272136Y290232D02*
D03*
X265000Y272000D02*
D03*
X277475Y277240D02*
D03*
X287086Y280444D02*
D03*
Y295037D02*
D03*
X299544Y298953D02*
D03*
X297586Y274926D02*
D03*
X296518Y259443D02*
D03*
X297230Y241467D02*
D03*
X297000Y215500D02*
D03*
X248465Y138242D02*
D03*
X250779Y158353D02*
D03*
X265373Y169210D02*
D03*
X261102Y147319D02*
D03*
X287500Y137000D02*
D03*
X276585Y135217D02*
D03*
X261813Y137708D02*
D03*
X253983Y139844D02*
D03*
X253449Y151946D02*
D03*
X259856Y156574D02*
D03*
X289043Y168498D02*
D03*
X272000Y168000D02*
D03*
X290500Y204500D02*
D03*
X288332Y185583D02*
D03*
X272492Y184160D02*
D03*
X270500Y201500D02*
D03*
X293500Y223000D02*
D03*
Y250000D02*
D03*
X269500Y222000D02*
D03*
X269000Y241500D02*
D03*
X269500Y256500D02*
D03*
X285500Y259000D02*
D03*
X391000Y228500D02*
D03*
X365000Y277000D02*
D03*
X379000Y278000D02*
D03*
X398000Y228500D02*
D03*
X385000Y227500D02*
D03*
X382000Y202500D02*
D03*
X397500Y140000D02*
D03*
X376101Y144594D02*
D03*
X369090Y146230D02*
D03*
X389000Y146500D02*
D03*
X381000Y151000D02*
D03*
X372000Y153500D02*
D03*
X310000Y113500D02*
D03*
X276888Y116122D02*
D03*
X301287Y121304D02*
D03*
X292218Y113963D02*
D03*
X282502Y108349D02*
D03*
X311500Y91000D02*
D03*
X278500Y96000D02*
D03*
X315000Y98000D02*
D03*
X301287Y105111D02*
D03*
X275000Y107500D02*
D03*
X289500Y96000D02*
D03*
X298000Y92500D02*
D03*
X296500Y100500D02*
D03*
X305000Y97000D02*
D03*
X352000Y120500D02*
D03*
X335000Y102500D02*
D03*
X336500Y96500D02*
D03*
X342512Y96009D02*
D03*
X351349D02*
D03*
X360890Y95306D02*
D03*
X370430Y95708D02*
D03*
X365409Y99524D02*
D03*
X357073Y101332D02*
D03*
X349500Y102000D02*
D03*
X339500Y104500D02*
D03*
X372000Y102000D02*
D03*
X367518Y104746D02*
D03*
X361500Y107000D02*
D03*
X354563Y108562D02*
D03*
X346127Y109265D02*
D03*
X338500Y110000D02*
D03*
X354500Y115500D02*
D03*
X345500Y117000D02*
D03*
X338000Y116500D02*
D03*
X400000Y44500D02*
D03*
X390000Y67000D02*
D03*
X342000Y69000D02*
D03*
X378500Y67500D02*
D03*
X364500Y68000D02*
D03*
X353000D02*
D03*
X320000Y39500D02*
D03*
X332500Y56500D02*
D03*
X341000Y57000D02*
D03*
X353000D02*
D03*
X366961Y57897D02*
D03*
X379500Y57000D02*
D03*
X385000Y62000D02*
D03*
X372686Y61806D02*
D03*
X358305Y62783D02*
D03*
X344342Y62225D02*
D03*
X335000Y62000D02*
D03*
X327500Y64000D02*
D03*
X328285Y71161D02*
D03*
X334010D02*
D03*
X347972Y71301D02*
D03*
X360818Y71999D02*
D03*
X373384D02*
D03*
X384833Y72697D02*
D03*
X394747Y72976D02*
D03*
X404000Y72500D02*
D03*
X414000Y72000D02*
D03*
X424500Y70000D02*
D03*
X421500Y46000D02*
D03*
X424000Y54500D02*
D03*
X414000Y57000D02*
D03*
X400751Y50636D02*
D03*
X395864Y57757D02*
D03*
X396981Y66553D02*
D03*
X408570Y66274D02*
D03*
X418343Y64459D02*
D03*
X407313Y57478D02*
D03*
X414713Y48542D02*
D03*
X407500Y45000D02*
D03*
X413875Y32904D02*
D03*
X424627Y25224D02*
D03*
X420577Y29972D02*
D03*
X423091Y34858D02*
D03*
X417226Y35975D02*
D03*
X410385D02*
D03*
X404939Y35277D02*
D03*
X399500Y33000D02*
D03*
Y5500D02*
D03*
X395724Y10284D02*
D03*
X392932Y14473D02*
D03*
X393000Y21000D02*
D03*
X395000Y27000D02*
D03*
X320500Y11500D02*
D03*
X327500Y21500D02*
D03*
X316500Y18500D02*
D03*
X320000Y5000D02*
D03*
X332500Y8000D02*
D03*
X328000Y12500D02*
D03*
X323000Y17000D02*
D03*
X322000Y26000D02*
D03*
X331715Y24750D02*
D03*
X332500Y32000D02*
D03*
X323000Y34000D02*
D03*
X334500Y37500D02*
D03*
X342000D02*
D03*
X340000Y32000D02*
D03*
X339500Y25000D02*
D03*
Y5000D02*
D03*
X340000Y11000D02*
D03*
X333000Y17000D02*
D03*
X339500D02*
D03*
X345500D02*
D03*
X351000D02*
D03*
X373500D02*
D03*
X367000D02*
D03*
X387500Y6000D02*
D03*
X379000D02*
D03*
X387000Y11500D02*
D03*
X379000D02*
D03*
X386500Y17000D02*
D03*
X379000D02*
D03*
X386500Y22000D02*
D03*
X379000D02*
D03*
X386500Y28000D02*
D03*
X379000D02*
D03*
X381000Y48500D02*
D03*
X375000D02*
D03*
X368500D02*
D03*
X361500D02*
D03*
X354000D02*
D03*
X388000Y34500D02*
D03*
X381167D02*
D03*
X374333D02*
D03*
X367500D02*
D03*
X381500Y39500D02*
D03*
X375333D02*
D03*
X369167D02*
D03*
X363000D02*
D03*
X383500Y43500D02*
D03*
X377625D02*
D03*
X371750D02*
D03*
X360000D02*
D03*
X361500Y25000D02*
D03*
X356500D02*
D03*
X361500Y28500D02*
D03*
X356500D02*
D03*
X361000Y33000D02*
D03*
X358000Y36000D02*
D03*
X355000Y32000D02*
D03*
X352500Y34500D02*
D03*
X355000Y39000D02*
D03*
X352500Y41500D02*
D03*
X349500Y37500D02*
D03*
X347000Y40000D02*
D03*
X350000Y44000D02*
D03*
X347500Y47000D02*
D03*
X343500Y48500D02*
D03*
X344000Y43000D02*
D03*
X339500Y43500D02*
D03*
Y48500D02*
D03*
X335500D02*
D03*
Y43500D02*
D03*
X365875D02*
D03*
D85*
X405000Y294000D02*
D03*
X88000Y229500D02*
D03*
X121500Y229000D02*
D03*
X134000D02*
D03*
X187500D02*
D03*
X199500D02*
D03*
X163500D02*
D03*
X175500D02*
D03*
X76000Y229500D02*
D03*
X64000D02*
D03*
X52000D02*
D03*
X395000Y282000D02*
D03*
X5500Y256500D02*
D03*
D86*
X395000Y294000D02*
D03*
X405000Y304000D02*
D03*
X395000D02*
D03*
X405000Y314000D02*
D03*
X395000D02*
D03*
X405000Y324000D02*
D03*
X395000D02*
D03*
X88000Y239500D02*
D03*
Y249500D02*
D03*
X121500Y239000D02*
D03*
Y249000D02*
D03*
X134000Y239000D02*
D03*
Y249000D02*
D03*
X187500Y239000D02*
D03*
Y249000D02*
D03*
X199500Y239000D02*
D03*
Y249000D02*
D03*
X163500Y239000D02*
D03*
Y249000D02*
D03*
X175500Y239000D02*
D03*
Y249000D02*
D03*
X76000Y239500D02*
D03*
Y249500D02*
D03*
X64000Y239500D02*
D03*
Y249500D02*
D03*
X52000Y239500D02*
D03*
Y249500D02*
D03*
X405000Y272000D02*
D03*
X395000D02*
D03*
X405000Y282000D02*
D03*
X5500Y236500D02*
D03*
Y226500D02*
D03*
Y216500D02*
D03*
Y206500D02*
D03*
Y196500D02*
D03*
Y186500D02*
D03*
Y176500D02*
D03*
Y246500D02*
D03*
X175173Y97587D02*
D03*
X225173D02*
D03*
X215173Y107587D02*
D03*
Y97587D02*
D03*
X205173Y107587D02*
D03*
Y97587D02*
D03*
X195173Y107587D02*
D03*
Y97587D02*
D03*
X185173Y107587D02*
D03*
Y97587D02*
D03*
X175173Y107587D02*
D03*
X165173D02*
D03*
Y97587D02*
D03*
X155173Y107587D02*
D03*
Y97587D02*
D03*
X145173Y107587D02*
D03*
Y97587D02*
D03*
X135173Y107587D02*
D03*
Y97587D02*
D03*
X125173Y107587D02*
D03*
Y97587D02*
D03*
X115173Y107587D02*
D03*
Y97587D02*
D03*
X105173Y107587D02*
D03*
Y97587D02*
D03*
X95173Y107587D02*
D03*
Y97587D02*
D03*
X85173Y107587D02*
D03*
Y97587D02*
D03*
X75173Y107587D02*
D03*
Y97587D02*
D03*
X65173Y107587D02*
D03*
Y97587D02*
D03*
X55173Y107587D02*
D03*
Y97587D02*
D03*
X45173Y107587D02*
D03*
Y97587D02*
D03*
X35173Y107587D02*
D03*
Y97587D02*
D03*
D87*
X410085Y17594D02*
D03*
X279585Y151594D02*
D03*
Y328094D02*
D03*
X244346Y295500D02*
D03*
X16000D02*
D03*
X244346Y102587D02*
D03*
X16000D02*
D03*
D88*
X74000Y324240D02*
D03*
X59000D02*
D03*
X169500Y32000D02*
D03*
X184500D02*
D03*
X199500D02*
D03*
X214500D02*
D03*
X229500D02*
D03*
X244500D02*
D03*
X259500D02*
D03*
X274500D02*
D03*
X289500D02*
D03*
X397000Y165000D02*
D03*
Y180000D02*
D03*
Y195000D02*
D03*
X179000Y324240D02*
D03*
X164000D02*
D03*
X11000Y32000D02*
D03*
X26000D02*
D03*
X41000D02*
D03*
X56000D02*
D03*
X71000D02*
D03*
X86000D02*
D03*
X101000D02*
D03*
X116000D02*
D03*
X131000D02*
D03*
D89*
X44000Y324240D02*
D03*
X304500Y32000D02*
D03*
X149000Y324240D02*
D03*
X146000Y32000D02*
D03*
D90*
X239189Y203378D02*
D03*
Y223378D02*
D03*
Y183378D02*
D03*
D91*
Y173378D02*
D03*
D92*
X32410Y152032D02*
D03*
Y132740D02*
D03*
D93*
X397000Y210000D02*
D03*
D94*
X369000Y7000D02*
D03*
X349000D02*
D03*
X369000Y27000D02*
D03*
X349000D02*
D03*
X359000Y17000D02*
D03*
D95*
X351378Y331012D02*
D03*
X328622D02*
D03*
D96*
X322992Y345500D02*
D03*
X357008D02*
D03*
D97*
X322992Y329043D02*
D03*
X357008D02*
D03*
D98*
X225173Y107587D02*
D03*
D99*
X146000Y50087D02*
D03*
X131000D02*
D03*
X116000D02*
D03*
X101000D02*
D03*
X86000D02*
D03*
X71000D02*
D03*
X56000D02*
D03*
X41000D02*
D03*
X26000D02*
D03*
X11000D02*
D03*
X304500D02*
D03*
X289500D02*
D03*
X274500D02*
D03*
X259500D02*
D03*
X244500D02*
D03*
X229500D02*
D03*
X214500D02*
D03*
X199500D02*
D03*
X184500D02*
D03*
X169500D02*
D03*
M02*
