G04*
G04 #@! TF.GenerationSoftware,Altium Limited,Altium Designer,21.3.2 (30)*
G04*
G04 Layer_Color=16711935*
%FSLAX25Y25*%
%MOIN*%
G70*
G04*
G04 #@! TF.SameCoordinates,3DE5AAB8-A364-4EDB-86DF-7AF4210CBEDD*
G04*
G04*
G04 #@! TF.FilePolarity,Positive*
G04*
G01*
G75*
%ADD12C,0.00000*%
%ADD15C,0.01000*%
D12*
X115469Y159012D02*
X115205Y159996D01*
X114484Y160717D01*
X113500Y160980D01*
X112516Y160717D01*
X111795Y159996D01*
X111531Y159012D01*
X111795Y158028D01*
X112516Y157307D01*
X113500Y157043D01*
X114484Y157307D01*
X115205Y158028D01*
X115469Y159012D01*
Y147791D02*
X115205Y148776D01*
X114484Y149496D01*
X113500Y149760D01*
X112516Y149496D01*
X111795Y148776D01*
X111531Y147791D01*
X111795Y146807D01*
X112516Y146087D01*
X113500Y145823D01*
X114484Y146087D01*
X115205Y146807D01*
X115469Y147791D01*
D15*
X10000Y356000D02*
X8989Y355861D01*
X7996Y355629D01*
X7028Y355306D01*
X6094Y354896D01*
X5202Y354401D01*
X4359Y353826D01*
X3573Y353176D01*
X2850Y352455D01*
X2197Y351672D01*
X1619Y350831D01*
X1121Y349940D01*
X708Y349008D01*
X382Y348041D01*
X146Y347048D01*
X4Y346038D01*
X-45Y345019D01*
X0Y344000D01*
X411500Y0D02*
X412495Y42D01*
X413486Y140D01*
X414470Y293D01*
X415444Y501D01*
X416404Y763D01*
X417348Y1079D01*
X418274Y1447D01*
X419177Y1866D01*
X420055Y2336D01*
X420905Y2854D01*
X421725Y3418D01*
X422512Y4028D01*
X423264Y4682D01*
X423978Y5376D01*
X424652Y6109D01*
X425283Y6878D01*
X425871Y7683D01*
X426412Y8518D01*
X426906Y9383D01*
X427351Y10274D01*
X427744Y11188D01*
X428087Y12124D01*
X428375Y13076D01*
X428611Y14044D01*
X428791Y15023D01*
X428916Y16011D01*
X428986Y17004D01*
X429000Y18000D01*
X429000Y343500D02*
X428907Y344488D01*
X428740Y345466D01*
X428501Y346430D01*
X428190Y347372D01*
X427810Y348289D01*
X427362Y349175D01*
X426850Y350025D01*
X426275Y350834D01*
X425642Y351598D01*
X424953Y352312D01*
X424213Y352973D01*
X423425Y353577D01*
X422594Y354120D01*
X421726Y354600D01*
X420823Y355013D01*
X419893Y355358D01*
X418939Y355632D01*
X417967Y355835D01*
X416983Y355964D01*
X415992Y356019D01*
X415000Y356000D01*
X0Y0D02*
Y344000D01*
X10000Y356000D02*
X415000D01*
X429000Y18000D02*
Y343500D01*
X0Y0D02*
X411500D01*
M02*
